<?xml version="1.0" encoding="UTF-8"?>
<svg id="_레이어_2" data-name="레이어 2" xmlns="http://www.w3.org/2000/svg" viewBox="0 0 174.37 10.38">
  <defs>
    <style>
      .cls-1 {
        fill: #fff;
        stroke-width: 0px;
      }
    </style>
  </defs>
  <g id="_레이어_1-2" data-name="레이어 1">
    <g>
      <g>
        <path class="cls-1" d="m7.86,7.02c0,1.89-1.51,3-3.79,3-1.67,0-2.51-.15-4.07-.93l.72-1.54c1.29.62,2.19.75,3.41.75,1.07,0,1.71-.39,1.71-1.11,0-.67-.65-.96-2.08-1.29C1.75,5.44.12,4.87.12,2.94.12,1.22,1.5,0,3.73,0c1.48,0,2.79.37,3.75.79l-.8,1.58c-.86-.36-2.07-.65-2.98-.65-1,0-1.55.44-1.55,1.05,0,.69.69.99,2.16,1.32,2.11.47,3.55,1.14,3.55,2.93Z"/>
        <path class="cls-1" d="m19.43,5.01c0,2.76-2.32,5-5.2,5s-5.21-2.23-5.21-5S11.35.01,14.23.01s5.2,2.23,5.2,5Zm-2.03,0c0-1.72-1.43-3.14-3.18-3.14s-3.17,1.42-3.17,3.14,1.42,3.14,3.17,3.14,3.18-1.4,3.18-3.14Z"/>
        <path class="cls-1" d="m25.26,7.37c-.11.01-.25.01-.37.01h-1.82v2.51h-1.98V.11h4.32c2.86,0,3.83,1.69,3.83,3.52,0,1.68-.69,2.79-1.98,3.34l2.28,2.91h-2.37l-1.89-2.53Zm-2.19-1.62h1.75c1.58,0,2.33-.81,2.33-1.96,0-1.01-.53-1.96-2.07-1.96h-2.01v3.91Z"/>
        <path class="cls-1" d="m40.84,5.01c0,2.76-2.32,5-5.2,5s-5.21-2.23-5.21-5S32.77.01,35.64.01s5.2,2.23,5.2,5Zm-2.03,0c0-1.72-1.43-3.14-3.18-3.14s-3.16,1.42-3.16,3.14,1.41,3.14,3.16,3.14,3.18-1.4,3.18-3.14Z"/>
      </g>
      <path class="cls-1" d="m56.21,6.93l1.56,1.32c-.97,1.15-2.43,1.88-4.09,1.88-2.88,0-5.23-2.26-5.23-5.06s2.35-5.07,5.23-5.07c1.66,0,3.12.75,4.09,1.89l-1.56,1.32c-.56-.8-1.49-1.3-2.53-1.3-1.72,0-3.14,1.26-3.14,3.16s1.42,3.17,3.14,3.17c1.04,0,1.97-.51,2.53-1.31Z"/>
      <path class="cls-1" d="m69.13,5.07c0,2.8-2.35,5.06-5.27,5.06s-5.28-2.26-5.28-5.06S60.95.01,63.86.01s5.27,2.26,5.27,5.06Zm-2.06,0c0-1.74-1.45-3.18-3.21-3.18s-3.21,1.44-3.21,3.18,1.43,3.18,3.21,3.18,3.21-1.42,3.21-3.18Z"/>
      <path class="cls-1" d="m80.98.11v9.91h-2.03v-5.48l-3.07,4.3-3.08-4.3v5.48h-2.01V.11h.99l4.1,5.68L80,.11h.98Z"/>
      <path class="cls-1" d="m93.22.11v9.91h-2.02v-5.48l-3.07,4.3-3.08-4.3v5.48h-2.01V.11h.98l4.11,5.68L92.23.11h.99Z"/>
    </g>
    <path class="cls-1" d="m103.28,6.28c0,2.28-1.52,4.09-4.4,4.09s-4.37-1.8-4.37-4.09V.35h1.97v5.41c0,1.87.83,2.75,2.41,2.75s2.43-.89,2.43-2.75V.35h1.97v5.93Z"/>
    <path class="cls-1" d="m114.15.35v9.91h-.98l-5.92-6.24v6.24h-2.01V.35h.99l5.91,6.24V.35h2.02Z"/>
    <path class="cls-1" d="m118.26,10.26h-2.02V.35h2.02v9.91Z"/>
    <path class="cls-1" d="m127.71,7.17l1.56,1.32c-.97,1.15-2.43,1.88-4.09,1.88-2.89,0-5.23-2.26-5.23-5.06S122.29.24,125.18.24c1.66,0,3.12.75,4.09,1.89l-1.56,1.32c-.56-.8-1.49-1.3-2.53-1.3-1.73,0-3.15,1.26-3.15,3.16s1.42,3.17,3.15,3.17c1.04,0,1.97-.51,2.53-1.31Z"/>
    <path class="cls-1" d="m137.27,8.25h-4.43l-.89,2.01h-2.12l4.72-9.91h1l4.74,9.91h-2.12l-.9-2.01Zm-3.71-1.67h3l-1.51-3.27-1.49,3.27Z"/>
    <path class="cls-1" d="m148.03,2.09h-3.16v8.17h-2.02V2.09h-3.15V.35h8.34v1.74Z"/>
    <path class="cls-1" d="m151.57,10.26h-2.02V.35h2.02v9.91Z"/>
    <path class="cls-1" d="m163.79,5.31c0,2.8-2.35,5.06-5.27,5.06s-5.27-2.26-5.27-5.06,2.36-5.06,5.27-5.06,5.27,2.26,5.27,5.06Zm-2.05,0c0-1.74-1.45-3.18-3.22-3.18s-3.2,1.44-3.2,3.18,1.43,3.18,3.2,3.18,3.22-1.42,3.22-3.18Z"/>
    <path class="cls-1" d="m174.37.35v9.91h-.98l-5.92-6.24v6.24h-2.01V.35h.99l5.91,6.24V.35h2.02Z"/>
  </g>
</svg>